<?xml version="1.0" encoding="utf-8"?>
<!-- Generator: Adobe Illustrator 16.0.0, SVG Export Plug-In . SVG Version: 6.00 Build 0)  -->
<svg version="1.2" baseProfile="tiny" id="Layer_1" xmlns="http://www.w3.org/2000/svg" xmlns:xlink="http://www.w3.org/1999/xlink"
	 x="0px" y="0px" width="153px" height="17px" viewBox="0 0 153 17" xml:space="preserve">
<g>
	
		<rect x="49.947" y="3.947" transform="matrix(-0.7071 0.7071 -0.7071 -0.7071 99.0477 -24.0269)" fill="#FFFFFF" width="9.107" height="9.107"/>
	<path d="M54.5,3.121L59.879,8.5L54.5,13.879L49.121,8.5L54.5,3.121 M54.5,1L47,8.5l7.5,7.5L62,8.5L54.5,1L54.5,1z"/>
</g>
<g>
	
		<rect x="93.947" y="3.947" transform="matrix(-0.7071 0.7071 -0.7071 -0.7071 174.1604 -55.1396)" fill="#FFFFFF" width="9.107" height="9.107"/>
	<path d="M98.5,3.121l5.379,5.379L98.5,13.879L93.121,8.5L98.5,3.121 M98.5,1L91,8.5l7.5,7.5l7.5-7.5L98.5,1L98.5,1z"/>
</g>
<rect x="72.964" y="4.964" transform="matrix(-0.7071 -0.7071 0.7071 -0.7071 124.5833 68.6041)" width="7.071" height="7.071"/>
<line fill="none" stroke="#000000" stroke-width="2" stroke-linecap="round" stroke-miterlimit="10" stroke-dasharray="0,4" x1="1.5" y1="9.5" x2="38.5" y2="9.5"/>
<line fill="none" stroke="#000000" stroke-width="2" stroke-linecap="round" stroke-miterlimit="10" stroke-dasharray="0,4" x1="115.5" y1="9.5" x2="152.5" y2="9.5"/>
</svg>
